<?xml version="1.0" encoding="UTF-8"?>
<svg version="1.1" xmlns="http://www.w3.org/2000/svg" width="119" height="132">
<path d="M0 0 C2.5 1.5625 2.5 1.5625 4 4 C4.50824648 8.65892603 3.81939776 11.75716444 2 16 C2.65484375 16.07476562 3.3096875 16.14953125 3.984375 16.2265625 C17.46045369 18.16803146 28.13493675 24.67139579 36.77734375 35.15625 C41.95560893 42.4295385 46.45675058 50.93215756 46 60 C48.31 60.33 50.62 60.66 53 61 C52.39375 66.45625 52.39375 66.45625 50.6875 68.8125 C46.03771536 72.08457067 40.37880123 70.86458305 34.99609375 70.546875 C34.00738281 70.69640625 33.01867187 70.8459375 32 71 C30.16490005 73.37926717 30.16490005 73.37926717 29 76 C26.5106576 77.2446712 24.18268902 77.30356297 21.44140625 77.54272461 C7.67631087 78.80860047 -2.37349972 83.376374 -13.75146484 91.03613281 C-21.51058252 96.17599782 -29.51657363 99.86212967 -39 99 C-39.66 100.65 -40.32 102.3 -41 104 C-47.27 104 -53.54 104 -60 104 C-60.0229132 99.74578286 -60.04283889 95.49177843 -60.05493164 91.23754883 C-60.05997101 89.78929927 -60.06680253 88.34105483 -60.07543945 86.89282227 C-60.08752247 84.81525412 -60.09323211 82.73775303 -60.09765625 80.66015625 C-60.10289307 79.40855713 -60.10812988 78.15695801 -60.11352539 76.86743164 C-60 74 -60 74 -59 73 C-56.21562761 72.84613458 -53.47316769 72.7683117 -50.6875 72.75 C-49.91470703 72.729375 -49.14191406 72.70875 -48.34570312 72.6875 C-42.5907439 72.64791301 -42.5907439 72.64791301 -39.45703125 74.515625 C-38.97621094 75.00546875 -38.49539062 75.4953125 -38 76 C-35.69 74.68 -33.38 73.36 -31 72 C-31.64026123 71.98541748 -32.28052246 71.97083496 -32.94018555 71.95581055 C-35.85654831 71.88108618 -38.77179687 71.78450707 -41.6875 71.6875 C-42.69490234 71.66494141 -43.70230469 71.64238281 -44.74023438 71.61914062 C-54.17872649 71.2764891 -54.17872649 71.2764891 -58 68 C-60 65 -60 65 -59.625 62.3125 C-59.41875 61.549375 -59.2125 60.78625 -59 60 C-57.35 60 -55.7 60 -54 60 C-53.92523438 59.41734375 -53.85046875 58.8346875 -53.7734375 58.234375 C-51.53864958 44.299815 -44.00068773 33.52239143 -33.1875 24.6875 C-25.98073259 19.62406262 -17.7805143 16.50656813 -9 16 C-9.515625 14.96875 -10.03125 13.9375 -10.5625 12.875 C-12.11648316 9.23676455 -12.22444872 6.8482674 -11 3 C-8.6574234 -1.13395871 -4.23754244 -0.75030933 0 0 Z M-7 5 C-7.16666667 7.5 -7.16666667 7.5 -7 10 C-5.93354885 11.29633621 -5.93354885 11.29633621 -3.4375 11.0625 C-2.633125 11.041875 -1.82875 11.02125 -1 11 C-0.61866701 9.0085944 -0.28674418 7.00720923 0 5 C-1.0595877 3.71677453 -1.0595877 3.71677453 -3.5 3.875 C-5.9404123 3.71677453 -5.9404123 3.71677453 -7 5 Z M-41 38 C-45.98981769 44.62136571 -49.10600579 51.65484529 -49 60 C-44.65850945 60.14857681 -40.31837268 60.25731436 -35.97509766 60.32958984 C-34.49859844 60.35972248 -33.02227768 60.40063879 -31.54638672 60.45263672 C-29.42110221 60.52562629 -27.29818607 60.55948491 -25.171875 60.5859375 C-23.2552002 60.63306885 -23.2552002 60.63306885 -21.29980469 60.68115234 C-17.73085426 60.32144515 -17.73085426 60.32144515 -15.74316406 57.02978516 C-15.16791992 56.02995605 -14.59267578 55.03012695 -14 54 C-10.9375 52.9375 -10.9375 52.9375 -8 53 C-4.94865779 54.99915524 -4.92478475 56.30086101 -4 60 C11.18 60 26.36 60 42 60 C40.55001196 48.40009571 36.16830806 38.86256322 27.44921875 30.8984375 C5.55649002 13.92895399 -23.07456799 16.77372117 -41 38 Z M-11 56 C-11.51949219 56.65226562 -12.03898437 57.30453125 -12.57421875 57.9765625 C-14.02023475 59.78876 -15.47098967 61.59718351 -16.92578125 63.40234375 C-18.44375193 65.30338047 -19.92148922 67.23673553 -21.375 69.1875 C-26.39978934 74.57120286 -32.18934478 78.27573791 -39 81 C-39 85.62 -39 90.24 -39 95 C-26.43712769 94.80965345 -16.75957191 88.24984513 -6.515625 81.5703125 C3.01602099 75.6204341 12.76388948 73.9655602 23.84765625 73.34375 C24.91306641 73.17359375 24.91306641 73.17359375 26 73 C26.33 72.34 26.66 71.68 27 71 C6.705 70.505 6.705 70.505 -14 70 C-13 66 -13 66 -11 64.0625 C-8.70080717 61.69145739 -8.35863113 60.22768018 -8 57 C-8.99 56.67 -9.98 56.34 -11 56 Z M-55 64 C-54.67 64.66 -54.34 65.32 -54 66 C-43.77 66 -33.54 66 -23 66 C-23 65.34 -23 64.68 -23 64 C-33.56 64 -44.12 64 -55 64 Z M-6 64 C-6.33 64.66 -6.66 65.32 -7 66 C10.82 66 28.64 66 47 66 C47.33 65.34 47.66 64.68 48 64 C30.18 64 12.36 64 -6 64 Z M-56 77 C-56 84.59 -56 92.18 -56 100 C-51.71 100 -47.42 100 -43 100 C-42.97317013 96.35411831 -42.95324431 92.70843154 -42.9375 89.0625 C-42.92912109 88.02158203 -42.92074219 86.98066406 -42.91210938 85.90820312 C-42.90888672 84.91884766 -42.90566406 83.92949219 -42.90234375 82.91015625 C-42.89710693 81.99371338 -42.89187012 81.07727051 -42.88647461 80.13305664 C-42.76078789 78.01636977 -42.76078789 78.01636977 -44 77 C-46.01964199 76.92755947 -48.04167124 76.91622812 -50.0625 76.9375 C-53.0015625 76.9684375 -53.0015625 76.9684375 -56 77 Z " fill="#E2AD92" transform="translate(64,17)"/>
<path d="M0 0 C2.875 0.9375 2.875 0.9375 4.875 3.9375 C4.875 5.2575 4.875 6.5775 4.875 7.9375 C20.055 7.9375 35.235 7.9375 50.875 7.9375 C50.875 8.2675 50.875 8.5975 50.875 8.9375 C35.365 8.9375 19.855 8.9375 3.875 8.9375 C3.545 6.9575 3.215 4.9775 2.875 2.9375 C2.215 2.9375 1.555 2.9375 0.875 2.9375 C0.545 3.5975 0.215 4.2575 -0.125 4.9375 C-0.785 4.9375 -1.445 4.9375 -2.125 4.9375 C-3.51438077 6.89897874 -4.8510411 8.89916576 -6.125 10.9375 C-6.455 10.2775 -6.785 9.6175 -7.125 8.9375 C-9.105 8.9375 -11.085 8.9375 -13.125 8.9375 C-12.196875 8.81375 -12.196875 8.81375 -11.25 8.6875 C-8.98109195 8.15152157 -8.98109195 8.15152157 -8.125 6.125 C-7.795 5.403125 -7.465 4.68125 -7.125 3.9375 C-4.75389743 0.80425732 -4.00983835 -0.08019677 0 0 Z " fill="#D7AA93" transform="translate(55.125,69.0625)"/>
<path d="M0 0 C1.11826172 0.05478516 2.23652344 0.10957031 3.38867188 0.16601562 C5.13954102 0.27526367 5.13954102 0.27526367 6.92578125 0.38671875 C8.10462891 0.44794922 9.28347656 0.50917969 10.49804688 0.57226562 C13.41250794 0.72565831 16.32540584 0.89352871 19.23828125 1.07421875 C19.23828125 2.06421875 19.23828125 3.05421875 19.23828125 4.07421875 C16.07163459 4.10362333 12.90502378 4.1211519 9.73828125 4.13671875 C8.85140625 4.14509766 7.96453125 4.15347656 7.05078125 4.16210938 C1.68005039 4.18185471 -3.44805538 3.86257768 -8.76171875 3.07421875 C-6.15101344 -0.35061955 -4.16185477 -0.23238783 0 0 Z " fill="#E9AB8C" transform="translate(60.76171875,82.92578125)"/>
<path d="M0 0 C5.53896846 0.4615807 10.39647899 1.74385099 15 5 C15.33 5.99 15.66 6.98 16 8 C13.60996728 8.84291332 12.4145692 9.15384404 10 8.2578125 C9.34 7.88398437 8.68 7.51015625 8 7.125 C5.33492353 5.63630494 2.99515767 4.62844826 0 4 C0 2.68 0 1.36 0 0 Z " fill="#DFB097" transform="translate(68,44)"/>
<path d="M0 0 C0 0.66 0 1.32 0 2 C0.99 1.67 1.98 1.34 3 1 C4.90112305 0.97827148 4.90112305 0.97827148 7.01171875 1.12109375 C7.76904297 1.16943359 8.52636719 1.21777344 9.30664062 1.26757812 C10.09232422 1.32365234 10.87800781 1.37972656 11.6875 1.4375 C12.48478516 1.48970703 13.28207031 1.54191406 14.10351562 1.59570312 C16.06936522 1.72519022 18.03473665 1.86190041 20 2 C20.33 1.34 20.66 0.68 21 0 C22.98 0.66 24.96 1.32 27 2 C26 3.5625 26 3.5625 24 5 C22.21055701 4.82793817 20.42095657 4.63184395 18.6484375 4.33203125 C10.86368997 3.35606733 2.69843036 3.50768888 -5 5 C-5 4.34 -5 3.68 -5 3 C-3.68 3 -2.36 3 -1 3 C-1 2.34 -1 1.68 -1 1 C-1.9075 1.350625 -2.815 1.70125 -3.75 2.0625 C-6.87758436 2.96468779 -8.05208081 3.13381507 -11 2 C-7.17679443 0.57741188 -4.08718695 -0.24042276 0 0 Z " fill="#E0B29B" transform="translate(52,34)"/>
<path d="M0 0 C3.0182722 0.05418801 4.04925828 0.22609892 6.6875 1.875 C8.74928923 5.2254075 8.59550889 7.43641554 8.1875 11.3125 C7.1875 14.25 7.1875 14.25 6.1875 16.3125 C7.1775 16.6425 8.1675 16.9725 9.1875 17.3125 C7.8675 17.3125 6.5475 17.3125 5.1875 17.3125 C4.97471942 12.84410785 5.59611915 9.48987474 7.1875 5.3125 C5.8675 5.3125 4.5475 5.3125 3.1875 5.3125 C3.1875 4.6525 3.1875 3.9925 3.1875 3.3125 C0.2175 2.8175 0.2175 2.8175 -2.8125 2.3125 C-3.8025 3.7975 -3.8025 3.7975 -4.8125 5.3125 C-5.4725 5.3125 -6.1325 5.3125 -6.8125 5.3125 C-4.41712555 0.36205947 -4.41712555 0.36205947 0 0 Z " fill="#DDAE96" transform="translate(59.8125,16.6875)"/>
<path d="M0 0 C1.32 0.33 2.64 0.66 4 1 C4 1.66 4 2.32 4 3 C4.66 3 5.32 3 6 3 C6.33 2.34 6.66 1.68 7 1 C7.33 2.32 7.66 3.64 8 5 C10.31 5 12.62 5 15 5 C15 5.66 15 6.32 15 7 C15.66 7.33 16.32 7.66 17 8 C12.71 7.67 8.42 7.34 4 7 C4.33 6.01 4.66 5.02 5 4 C3.35 4 1.7 4 0 4 C0 2.68 0 1.36 0 0 Z " fill="#E8AB8C" transform="translate(57,29)"/>
<path d="M0 0 C-0.66 1.32 -1.32 2.64 -2 4 C-2.66 3.67 -3.32 3.34 -4 3 C-7.44127621 2.76862284 -10.87577869 2.60455322 -14.32226562 2.48242188 C-16.21946625 2.39109432 -18.11146711 2.20286566 -20 2 C-20.33 1.34 -20.66 0.68 -21 0 C-19.27111445 -0.16955795 -17.54187557 -0.33551514 -15.8125 -0.5 C-14.84957031 -0.5928125 -13.88664062 -0.685625 -12.89453125 -0.78125 C-8.37176417 -1.12305156 -4.42960294 -1.01248067 0 0 Z " fill="#ECAA89" transform="translate(40,85)"/>
<path d="M0 0 C4.29 0 8.58 0 13 0 C13.33 0.99 13.66 1.98 14 3 C9.05 3 4.1 3 -1 3 C-0.67 2.01 -0.34 1.02 0 0 Z " fill="#DFA88F" transform="translate(8,117)"/>
<path d="M0 0 C1.32 0.33 2.64 0.66 4 1 C3.67 1.99 3.34 2.98 3 4 C-3.6 4 -10.2 4 -17 4 C-12.60405194 1.80202597 -11.00732024 1.89926798 -6.25 2.375 C-5.07953125 2.48585938 -3.9090625 2.59671875 -2.703125 2.7109375 C-1.81109375 2.80632812 -0.9190625 2.90171875 0 3 C0 2.01 0 1.02 0 0 Z " fill="#DCAD91" transform="translate(80,84)"/>
<path d="M0 0 C-0.33 0.99 -0.66 1.98 -1 3 C-3.97 3 -6.94 3 -10 3 C-10 2.34 -10 1.68 -10 1 C-3.71428571 -1.42857143 -3.71428571 -1.42857143 0 0 Z " fill="#E8AC8D" transform="translate(62,33)"/>
<path d="M0 0 C0.33 0.66 0.66 1.32 1 2 C1.66 2 2.32 2 3 2 C3 1.34 3 0.68 3 0 C3.66 0.33 4.32 0.66 5 1 C4.01 3.64 3.02 6.28 2 9 C0.79371992 6.66785852 -0.1654738 4.50357861 -1 2 C-0.67 1.34 -0.34 0.68 0 0 Z " fill="#DEB39D" transform="translate(15,60)"/>
<path d="M0 0 C0.66 0.33 1.32 0.66 2 1 C1.67 1.66 1.34 2.32 1 3 C1.99 3.33 2.98 3.66 4 4 C2.1875 5.0625 2.1875 5.0625 0 6 C-0.99 5.67 -1.98 5.34 -3 5 C-2.625 3.0625 -2.625 3.0625 -2 1 C-1.34 0.67 -0.68 0.34 0 0 Z " fill="#DEAF9A" transform="translate(28,92)"/>
<path d="M0 0 C3.625 -0.1875 3.625 -0.1875 7 0 C6.67 0.66 6.34 1.32 6 2 C3.35139573 2.59355614 0.70802678 2.74209269 -2 3 C-1.34 2.01 -0.68 1.02 0 0 Z " fill="#E9AA8C" transform="translate(71,92)"/>
<path d="M0 0 C2.64 0 5.28 0 8 0 C8 0.99 8 1.98 8 3 C5.6568787 2.74438677 3.32156597 2.40729228 1 2 C0.67 1.34 0.34 0.68 0 0 Z " fill="#E7AB89" transform="translate(82,91)"/>
<path d="M0 0 C0.33 1.32 0.66 2.64 1 4 C-0.32 4.33 -1.64 4.66 -3 5 C-3 4.34 -3 3.68 -3 3 C-3.99 2.67 -4.98 2.34 -6 2 C-2.25 0 -2.25 0 0 0 Z " fill="#E1AF99" transform="translate(41,37)"/>
<path d="M0 0 C1.32 0.33 2.64 0.66 4 1 C4 1.66 4 2.32 4 3 C4.66 3 5.32 3 6 3 C5.67 3.99 5.34 4.98 5 6 C5 5.34 5 4.68 5 4 C3.35 4 1.7 4 0 4 C0 2.68 0 1.36 0 0 Z " fill="#D19071" transform="translate(57,29)"/>
<path d="M0 0 C0.99 0.33 1.98 0.66 3 1 C3 1.99 3 2.98 3 4 C1.68 4 0.36 4 -1 4 C-0.67 2.68 -0.34 1.36 0 0 Z " fill="#D7AD9D" transform="translate(87,54)"/>
</svg>
